<svg width="76" height="76" viewBox="0 0 76 76" fill="none" xmlns="http://www.w3.org/2000/svg">
<circle cx="38" cy="38" r="38" fill="#A36A4F"/>
<path d="M37.1465 15.3643C37.2438 15.6347 37.3734 15.8376 37.4275 15.7989C37.4815 15.77 37.4923 15.7989 37.4491 15.8666C37.4059 15.9245 37.4491 16.2916 37.5463 16.6779C37.8056 17.6438 37.7948 19.4597 37.5355 20.416C37.4275 20.812 37.3302 21.1791 37.3302 21.237C37.3302 21.2853 37.2978 21.3529 37.2654 21.3819C37.233 21.4109 37.0709 21.7296 36.8872 22.1063C36.7143 22.4734 36.3145 23.1495 35.9904 23.6035C35.677 24.0575 35.4069 24.4728 35.4069 24.5404C35.4069 24.608 35.3745 24.637 35.3313 24.6177C35.2664 24.5887 35.0179 24.8881 33.4728 26.8779C31.5819 29.283 31.0201 31.0603 31.5063 32.9921C31.6035 33.3592 31.798 33.8904 31.9277 34.1705L32.187 34.6631L32.1978 34.0353C32.2086 32.4609 33.0298 30.8671 35.1368 28.3171C35.4501 27.9404 35.6338 27.6217 35.5906 27.5541C35.5474 27.4864 35.5582 27.4671 35.623 27.4961C35.8283 27.612 37.622 25.1006 38.2378 23.816C38.8429 22.5796 39.0374 21.7586 39.0482 20.416C39.059 18.716 38.6809 17.4603 37.676 15.8666C37.0709 14.9006 36.9196 14.7558 37.1465 15.3643Z" fill="white"/>
<path d="M42.6895 21.4978C42.6679 22.2705 42.3438 23.2944 41.8251 24.2313C41.2092 25.3421 40.4097 26.279 38.5944 27.9887C38.3135 28.2592 38.1838 28.404 38.3027 28.3268C38.4972 28.2012 38.508 28.2012 38.3675 28.3557C38.2919 28.4523 38.1838 28.5103 38.1406 28.4813C38.0217 28.4137 37.3734 29.0609 37.4599 29.1574C37.5139 29.1961 37.4923 29.2057 37.4275 29.1768C37.1465 29.0319 35.5474 30.8188 34.9099 32.0069L34.4128 32.9245V34.1319C34.4128 35.0881 34.4561 35.4552 34.6289 35.8705L34.8342 36.4018L34.9207 35.7256C35.2124 33.5137 36.2173 31.7847 38.508 29.6018C39.1995 28.9546 39.7289 28.3654 39.6857 28.3074C39.6533 28.2592 39.6749 28.2398 39.7289 28.2688C39.8694 28.3461 40.1179 28.1046 39.9991 27.9984C39.9559 27.9501 39.9775 27.9404 40.0423 27.979C40.2152 28.066 41.4361 26.8489 41.3281 26.6847C41.2957 26.6461 41.3281 26.5785 41.3929 26.5398C41.4794 26.5012 41.4902 26.5109 41.447 26.5785C41.4037 26.6461 41.3929 26.6944 41.4145 26.6944C41.555 26.6944 42.387 25.2938 42.3978 25.0523C42.4086 24.9074 42.441 24.8012 42.4734 24.8205C42.7436 24.9654 42.9921 22.6279 42.8084 21.6717C42.722 21.208 42.7003 21.1887 42.6895 21.4978Z" fill="white"/>
<path d="M38.9029 29.1482C38.676 29.38 37.736 30.7516 37.736 30.8482C37.736 30.8868 38.0601 30.9255 38.4707 30.9255C40.1455 30.9255 43.5707 31.2345 45.4616 31.563C49.5783 32.2777 51.8906 33.3306 51.8906 34.4993C51.8906 36.1124 47.2985 37.5323 40.6533 37.9766C38.784 38.1022 33.8893 38.1022 32.0093 37.9766C26.7796 37.6289 22.6196 36.6436 21.2582 35.4266C20.5343 34.7698 20.5343 34.2289 21.2582 33.572C22.4143 32.5385 25.4182 31.7078 29.7834 31.2152C30.7343 31.109 31.523 31.0027 31.5554 30.9834C31.5771 30.9641 31.5446 30.6936 31.4798 30.3845C31.415 30.0755 31.361 29.6601 31.361 29.4573C31.361 29.013 31.4582 29.0226 29.1567 29.2834C23.5597 29.9402 19.4105 31.2635 17.7141 32.9539C17.0334 33.63 16.947 33.9101 17.0226 35.359C17.1523 38.1022 18.4273 42.101 20.1129 45.0953C23.9271 51.8953 30.8315 55.1408 40.3292 54.5902C41.4313 54.5226 42.4037 54.4357 42.4902 54.3874C42.609 54.3294 42.5658 54.3101 42.3389 54.3005C41.723 54.3005 39.3891 53.9044 37.79 53.5277C33.187 52.4652 29.9563 50.9198 27.1902 48.4567C25.7315 47.1527 24.6618 45.8294 23.8406 44.2743C23.3112 43.2891 22.4684 41.1158 22.5332 40.9323C22.5548 40.8743 22.7817 41.1931 23.041 41.6374C25.0724 45.2499 28.1626 48.0897 31.858 49.7414C36.9796 52.0402 42.5766 51.7022 47.1364 48.8141C50.486 46.6891 53.0792 43.2505 54.7648 38.6817C55.4455 36.8272 55.4131 36.8658 56.4071 37.0107C57.6281 37.1942 58.2764 37.8897 58.3521 39.1357C58.4169 40.1306 58.136 40.7777 57.2932 41.5794C56.5908 42.2556 55.7804 42.7289 54.7864 43.0476L54.1057 43.2698L53.2629 44.4965L52.4309 45.7232L52.8847 45.6556C53.6843 45.53 55.5643 44.9311 56.58 44.4772C57.8442 43.9169 58.7302 43.347 59.4758 42.6323C60.1889 41.9368 60.5455 41.4056 60.8588 40.5845C61.183 39.7152 61.129 37.9283 60.7616 37.0783C60.4158 36.2959 59.7459 35.6005 58.9679 35.2044C58.1792 34.8181 57.8334 34.7215 56.634 34.5862L55.694 34.48L55.6292 34.113C55.359 32.6061 52.5497 31.0607 48.3249 30.1044C45.9046 29.5539 42.8143 29.1385 40.448 29.0323C39.2054 28.9743 39.0758 28.984 38.9029 29.1482Z" fill="white"/>
</svg>
